<svg xmlns="http://www.w3.org/2000/svg" viewBox="0 0 65 79" width="100%" height="100%" fill="none"><g><path d="M0 66.7502V64.7317H0.234177C0.5 66.046 1.12342 66.7062 2.11392 66.7062C2.55696 66.7062 2.9019 66.5805 3.14557 66.3289C3.38924 66.0774 3.51266 65.7944 3.51266 65.4832C3.51266 65.1719 3.40506 64.9046 3.18987 64.6908C2.97468 64.4802 2.58544 64.2569 2.01582 64.0148C1.50949 63.7979 1.12658 63.6092 0.870253 63.4457C0.610759 63.2854 0.411392 63.0747 0.265823 62.8138C0.120253 62.5528 0.0506329 62.2793 0.0506329 61.9837C0.0506329 61.5373 0.205696 61.1631 0.518987 60.8644C0.832278 60.5657 1.22785 60.4179 1.7057 60.4179C1.97468 60.4179 2.22468 60.462 2.46203 60.5468C2.69937 60.6349 2.93987 60.8141 3.18987 61.0845C3.33228 60.9147 3.41456 60.7324 3.43354 60.5343H3.63924V62.1787H3.43354C3.31646 61.7007 3.10759 61.3235 2.80696 61.0468C2.50633 60.7732 2.16139 60.6349 1.76582 60.6349C1.37025 60.6349 1.11392 60.7355 0.939873 60.9399C0.762658 61.1411 0.677215 61.3643 0.677215 61.6033C0.677215 61.8925 0.787975 62.1378 1.00949 62.339C1.22785 62.5434 1.62025 62.7729 2.18987 63.0244C2.73418 63.2665 3.12975 63.4583 3.37658 63.6061C3.62342 63.7539 3.82278 63.9551 3.97152 64.2161C4.12025 64.477 4.1962 64.7757 4.1962 65.1153C4.1962 65.6529 4.01582 66.09 3.65506 66.4264C3.2943 66.7628 2.81329 66.9326 2.20886 66.9326C1.51582 66.9326 0.936709 66.6685 0.474683 66.1403C0.373418 66.2849 0.294304 66.4893 0.246835 66.7534H0V66.7502Z" fill="#0D122E" class="switch_white"></path><path d="M6.84483 62.0466H6.62964L6.66128 60.5374H12.7974L12.829 62.0466H12.6296C12.5569 61.6316 12.4588 61.3329 12.3353 61.1505C12.2119 60.9682 12.079 60.855 11.9334 60.8141C11.791 60.7732 11.5474 60.7512 11.2024 60.7512H10.1866V65.1845C10.1866 65.675 10.1993 65.9988 10.2214 66.1529C10.2436 66.3069 10.3069 66.4233 10.4113 66.4956C10.5126 66.571 10.7056 66.6056 10.9904 66.6056H11.2974V66.8194H8.14546V66.6056H8.47141C8.7404 66.6056 8.93027 66.571 9.0347 66.505C9.13913 66.4358 9.20559 66.3321 9.23407 66.1874C9.26255 66.0428 9.27837 65.7095 9.27837 65.1845V60.7512H8.34166C7.93344 60.7512 7.66128 60.7701 7.52204 60.8078C7.3828 60.8455 7.24989 60.9619 7.12964 61.1568C7.00622 61.3517 6.91128 61.6473 6.84799 62.0466" fill="#0D122E" class="switch_white"></path><path d="M23.0126 64.2915L21.8955 61.6159L20.7816 64.2915H23.0157H23.0126ZM23.0917 64.499H20.6898L20.5252 64.8983C20.2816 65.4769 20.1613 65.8542 20.1613 66.0302C20.1613 66.2189 20.2246 66.3604 20.3543 66.4578C20.4841 66.5553 20.6487 66.6025 20.8512 66.6025V66.8163H18.9714V66.6025C19.2499 66.5585 19.4588 66.461 19.5949 66.3069C19.7309 66.156 19.8955 65.8322 20.0885 65.3417C20.1043 65.2945 20.1771 65.1153 20.3132 64.804L22.1518 60.4462H22.3322L24.443 65.436L24.7309 66.0931C24.7974 66.2409 24.8828 66.3572 24.9936 66.4421C25.1043 66.527 25.2689 66.5805 25.4904 66.6025V66.8163H23.0062V66.6025C23.31 66.6025 23.5157 66.5805 23.6233 66.5364C23.7309 66.4924 23.7847 66.4012 23.7847 66.2692C23.7847 66.2 23.7119 65.9988 23.5695 65.6624L23.0854 64.499H23.0917Z" fill="#0D122E" class="switch_white"></path><path d="M32.8892 64.9675L32.8417 66.8163H27.4714V66.6025H27.6581C27.9271 66.6025 28.117 66.5679 28.2183 66.5019C28.3227 66.4327 28.3892 66.3289 28.4208 66.1843C28.4493 66.0397 28.4651 65.7064 28.4651 65.1813V62.1001C28.4651 61.6001 28.4493 61.2763 28.4208 61.1317C28.3892 60.987 28.329 60.8864 28.2341 60.8298C28.1392 60.7732 27.9303 60.7481 27.6107 60.7481H27.4714V60.5343H30.5062V60.7481H30.2278C29.9176 60.7481 29.7119 60.7732 29.617 60.8235C29.5221 60.8738 29.4556 60.9682 29.424 61.1097C29.3923 61.248 29.3765 61.5781 29.3765 62.1001V65.3888C29.3765 65.8416 29.3892 66.1277 29.4145 66.2409C29.4398 66.3541 29.5062 66.4453 29.617 66.5082C29.7278 66.571 29.9651 66.6025 30.329 66.6025H30.81C31.1993 66.6025 31.4873 66.5679 31.674 66.5019C31.8607 66.4327 32.0411 66.2849 32.2119 66.0585C32.3797 65.829 32.5347 65.4674 32.6771 64.9707H32.8955L32.8892 64.9675Z" fill="#0D122E" class="switch_white"></path><path d="M36.9176 63.5746V64.9738C36.9176 65.5712 36.9271 65.9485 36.9492 66.1088C36.9714 66.2692 37.0284 66.3918 37.1233 66.4736C37.2182 66.5553 37.4049 66.5993 37.6866 66.5993C38.1834 66.5993 38.5568 66.4736 38.8068 66.2189C39.0568 65.9642 39.1803 65.5869 39.1803 65.0807C39.1803 64.5745 39.0379 64.1783 38.7594 63.9362C38.4777 63.691 37.9841 63.5684 37.2752 63.5684C37.1644 63.5684 37.0442 63.5684 36.9208 63.5778M36.9208 63.3514C36.9967 63.3514 37.0632 63.3546 37.117 63.3546C37.7879 63.3546 38.2467 63.2508 38.4936 63.0401C38.7404 62.8295 38.8606 62.4899 38.8606 62.0214C38.8606 61.6944 38.8132 61.4398 38.7151 61.2606C38.6201 61.0813 38.4746 60.943 38.2815 60.8455C38.0885 60.7481 37.7594 60.7009 37.2942 60.7009C37.1739 60.7009 37.0473 60.704 36.9208 60.7135V63.3483V63.3514ZM38.0632 63.4395C38.7815 63.4929 39.3132 63.669 39.6613 63.9708C40.0094 64.2727 40.1834 64.6531 40.1834 65.1058C40.1834 65.502 40.0663 65.8416 39.829 66.1277C39.5917 66.4138 39.291 66.5993 38.9208 66.6874C38.5505 66.7754 38.06 66.8194 37.4398 66.8194H34.9587V66.6056H35.2024C35.4714 66.6056 35.6613 66.571 35.7625 66.505C35.867 66.4358 35.9334 66.3321 35.9619 66.1874C35.9904 66.0428 36.003 65.7095 36.003 65.1845V62.1283C36.003 61.619 35.9872 61.2889 35.9587 61.1411C35.9303 60.9933 35.867 60.8895 35.772 60.8361C35.6771 60.7795 35.4714 60.7543 35.1486 60.7543H35.0284V60.5405L36.0695 60.5123L37.253 60.4745C38.9809 60.4745 39.8448 60.9682 39.8448 61.9554C39.8448 62.3642 39.6961 62.6911 39.3986 62.9364C39.1011 63.1848 38.6549 63.3514 38.06 63.4363" fill="#0D122E" class="switch_white"></path><path d="M46.1488 64.2915L45.0285 61.6159L43.9146 64.2915H46.1488ZM46.2279 64.499H43.826L43.6615 64.8983C43.4178 65.4769 43.2975 65.8542 43.2975 66.0302C43.2975 66.2189 43.3608 66.3604 43.4906 66.4578C43.6203 66.5553 43.7849 66.6025 43.9874 66.6025V66.8163H42.1077V66.6025C42.3861 66.5585 42.595 66.461 42.7311 66.3069C42.8672 66.156 43.0317 65.8322 43.2248 65.3417C43.2406 65.2945 43.3165 65.1153 43.4494 64.804L45.2849 60.4462H45.4653L47.576 65.436L47.864 66.0931C47.9304 66.2409 48.0159 66.3572 48.1267 66.4421C48.2374 66.527 48.402 66.5805 48.6235 66.6025V66.8163H46.1393V66.6025C46.4431 66.6025 46.6488 66.5805 46.7564 66.5364C46.864 66.4924 46.9178 66.4012 46.9178 66.2692C46.9178 66.2 46.845 65.9988 46.7026 65.6624L46.2184 64.499H46.2279Z" fill="#0D122E" class="switch_white"></path><path d="M56.2184 66.9609L51.7468 61.0719V65.4297C51.7468 65.7913 51.7658 66.0302 51.8006 66.1434C51.8355 66.2566 51.9367 66.3635 52.1044 66.4578C52.2722 66.5522 52.5253 66.6025 52.8608 66.6025V66.8163H50.5032V66.6025C50.8038 66.5805 51.0348 66.527 51.193 66.439C51.3513 66.3509 51.4462 66.2566 51.4747 66.156C51.5032 66.0554 51.519 65.8133 51.519 65.4329V62.1032C51.519 61.6221 51.4968 61.2983 51.4525 61.1348C51.4082 60.9713 51.3355 60.8676 51.2374 60.8204C51.1393 60.7732 50.9209 60.7512 50.5823 60.7512V60.5374H52.4462L56.1899 65.4517V61.6945C56.1899 61.4178 56.1614 61.2228 56.1044 61.1097C56.0475 60.9996 55.9304 60.9116 55.7532 60.8455C55.576 60.7795 55.3639 60.7481 55.1139 60.7481V60.5343H57.4082V60.7481C57.1393 60.7701 56.9304 60.8204 56.7753 60.9021C56.6203 60.9839 56.5222 61.0782 56.481 61.1914C56.4399 61.3046 56.4177 61.4932 56.4177 61.7636V66.9609H56.2184V66.9609Z" fill="#0D122E" class="switch_white"></path><path d="M59.8164 66.7502V64.7317H60.0506C60.3132 66.046 60.9398 66.7062 61.9303 66.7062C62.3734 66.7062 62.7183 66.5805 62.962 66.3289C63.2056 66.0774 63.3291 65.7944 63.3291 65.4832C63.3291 65.1719 63.2215 64.9046 63.0063 64.6908C62.7911 64.4802 62.3987 64.2569 61.8322 64.0148C61.3259 63.7979 60.943 63.6092 60.6867 63.4457C60.4272 63.2854 60.2278 63.0747 60.0822 62.8138C59.9367 62.5528 59.867 62.2793 59.867 61.9837C59.867 61.5373 60.0221 61.1631 60.3354 60.8644C60.6487 60.5657 61.0443 60.4179 61.5221 60.4179C61.7911 60.4179 62.0411 60.462 62.2784 60.5468C62.5158 60.6349 62.7563 60.8141 63.0063 61.0845C63.1487 60.9147 63.231 60.7324 63.2499 60.5343H63.4556V62.1787H63.2499C63.1329 61.7007 62.924 61.3235 62.6234 61.0468C62.3227 60.7732 61.9778 60.6349 61.5822 60.6349C61.1867 60.6349 60.9303 60.7355 60.7563 60.9399C60.5791 61.1411 60.4936 61.3643 60.4936 61.6033C60.4936 61.8925 60.6044 62.1378 60.8259 62.339C61.0443 62.5434 61.4367 62.7729 62.0063 63.0244C62.5506 63.2665 62.9462 63.4583 63.193 63.6061C63.4398 63.7539 63.6392 63.9551 63.7879 64.2161C63.9367 64.477 64.0126 64.7757 64.0126 65.1153C64.0126 65.6529 63.8322 66.09 63.4715 66.4264C63.1107 66.7628 62.6297 66.9326 62.0253 66.9326C61.3322 66.9326 60.7531 66.6685 60.2911 66.1403C60.1898 66.2849 60.1139 66.4893 60.0632 66.7534H59.8291L59.8164 66.7502Z" fill="#0D122E" class="switch_white"></path><path d="M7.31006 77.8176V75.7991H7.54424C7.81006 77.1133 8.43348 77.7736 9.42398 77.7736C9.86702 77.7736 10.212 77.6478 10.4556 77.3963C10.6993 77.1448 10.8227 76.8618 10.8227 76.5505C10.8227 76.2393 10.7151 75.972 10.4999 75.7582C10.2847 75.5476 9.8955 75.3212 9.32588 75.0822C8.81955 74.8653 8.43664 74.6766 8.18031 74.5131C7.92082 74.3528 7.72145 74.1421 7.57588 73.8812C7.43031 73.6233 7.36069 73.3467 7.36069 73.0511C7.36069 72.6046 7.51575 72.2305 7.82905 71.9318C8.14234 71.6331 8.53791 71.4853 9.01575 71.4853C9.28474 71.4853 9.53474 71.5293 9.77208 71.6142C10.0094 71.6991 10.2499 71.8815 10.4999 72.1519C10.6423 71.9821 10.7246 71.7997 10.7436 71.6017H10.9493V73.246H10.7436C10.6265 72.7681 10.4177 72.3908 10.117 72.1142C9.81639 71.8406 9.47145 71.7023 9.07588 71.7023C8.68031 71.7023 8.42398 71.8029 8.24993 72.0073C8.07272 72.2085 7.98727 72.4317 7.98727 72.6707C7.98727 72.9599 8.09803 73.2052 8.31955 73.4064C8.53791 73.6108 8.93031 73.8403 9.49993 74.0918C10.0442 74.3339 10.4398 74.5257 10.6866 74.6735C10.9335 74.8213 11.1328 75.0225 11.2816 75.2834C11.4303 75.5413 11.5063 75.8431 11.5063 76.1827C11.5063 76.7203 11.3259 77.1574 10.9651 77.4938C10.6044 77.8302 10.1233 77.9968 9.51892 77.9968C8.82588 77.9968 8.24677 77.7327 7.78474 77.2045C7.68348 77.3492 7.60436 77.5535 7.55689 77.8145H7.32272L7.31006 77.8176Z" fill="#0D122E" class="switch_white"></path><path d="M19.7311 75.5256H19.9304V77.7265H19.7311C19.6741 77.4749 19.5728 77.2548 19.4273 77.063C18.8703 77.6856 18.1615 78 17.2975 78C16.383 78 15.6361 77.7139 15.057 77.1385C14.4779 76.5631 14.1868 75.8054 14.1868 74.859C14.1868 74.2396 14.3197 73.6548 14.5887 73.1046C14.8577 72.5575 15.2279 72.1487 15.7089 71.8846C16.1868 71.6174 16.7121 71.4853 17.2849 71.4853C17.7564 71.4853 18.1868 71.5828 18.5697 71.7746C18.9526 71.9664 19.2406 72.1802 19.4304 72.416C19.5633 72.155 19.6456 71.8815 19.6741 71.6017H19.8798L19.9368 73.9818H19.7374C19.5982 73.136 19.3133 72.548 18.883 72.2179C18.4526 71.8878 17.9684 71.7211 17.4273 71.7211C16.7659 71.7211 16.2374 71.9884 15.8482 72.5229C15.4589 73.0574 15.2627 73.8214 15.2627 74.815C15.2627 75.7582 15.4747 76.4782 15.902 76.9813C16.3292 77.4844 16.8577 77.7327 17.4906 77.7327C17.8292 77.7327 18.1773 77.651 18.5317 77.4875C18.8861 77.324 19.1646 77.0473 19.3735 76.6574C19.5792 76.2676 19.7026 75.8903 19.7406 75.5256" fill="#0D122E" class="switch_white"></path><path d="M27.8069 74.7332H24.5062V76.2487C24.5062 76.7423 24.5189 77.0662 24.5442 77.2171C24.5695 77.3712 24.6328 77.4844 24.7341 77.5567C24.8353 77.6321 25.0252 77.6667 25.31 77.6667H25.4746V77.8805H22.6296V77.6667H22.7942C23.0632 77.6667 23.2531 77.6321 23.3575 77.5661C23.4619 77.4969 23.5284 77.3932 23.5569 77.2486C23.5853 77.1039 23.6012 76.7706 23.6012 76.2456V73.1643C23.6012 72.6644 23.5853 72.3405 23.5569 72.1959C23.5284 72.0513 23.4651 71.9507 23.3701 71.8941C23.2752 71.8375 23.0695 71.8092 22.7467 71.8092H22.6296V71.5954H25.4746V71.8092H25.3575C25.0505 71.8092 24.848 71.8343 24.7499 71.8846C24.655 71.9349 24.5885 72.0324 24.5569 72.1707C24.522 72.3091 24.5062 72.6392 24.5062 73.1612V74.4062H27.8069V73.1612C27.8069 72.6612 27.7942 72.3374 27.7657 72.1928C27.7372 72.0481 27.6771 71.9475 27.5822 71.8909C27.4872 71.8343 27.2784 71.806 26.9588 71.806H26.791V71.5922H29.6676V71.806H29.5758C29.2657 71.806 29.06 71.8312 28.9651 71.8815C28.8701 71.9318 28.8037 72.0293 28.772 72.1676C28.7372 72.3059 28.7214 72.6361 28.7214 73.158V76.2393C28.7214 76.7329 28.7341 77.0568 28.7562 77.2077C28.7815 77.3617 28.8417 77.4749 28.9461 77.5472C29.0505 77.6196 29.2404 77.6573 29.5252 77.6573H29.6708V77.8711H26.7942V77.6573H27.0125C27.2784 77.6573 27.4651 77.6227 27.5695 77.5567C27.6739 77.4875 27.7404 77.3838 27.7657 77.2391C27.7942 77.0945 27.8069 76.7612 27.8069 76.2361V74.7207V74.7332Z" fill="#0D122E" class="switch_white"></path><path d="M33.3101 74.7332C33.3101 75.7425 33.5126 76.5002 33.9177 77.0064C34.3228 77.5126 34.9335 77.7673 35.7436 77.7673C36.4557 77.7673 37.019 77.5126 37.4304 77.0064C37.8449 76.5002 38.0506 75.7456 38.0506 74.7427C38.0506 73.7397 37.8481 73.0197 37.4398 72.4977C37.0316 71.9758 36.443 71.718 35.6677 71.718C34.8924 71.718 34.3228 71.9727 33.9177 72.4789C33.5126 72.9882 33.3101 73.7365 33.3101 74.7332M32.2436 74.7018C32.2436 73.7334 32.5696 72.9536 33.2215 72.3657C33.8734 71.7777 34.6898 71.4853 35.6645 71.4853C36.6392 71.4853 37.4715 71.7746 38.1329 72.3563C38.7943 72.9379 39.1234 73.7302 39.1234 74.7332C39.1234 75.7362 38.8069 76.4939 38.174 77.0945C37.5411 77.6982 36.7088 77.9968 35.6772 77.9968C34.6455 77.9968 33.8512 77.695 33.2057 77.0945C32.5633 76.4939 32.2405 75.6953 32.2405 74.6986" fill="#0D122E" class="switch_white"></path><path d="M42.9336 74.7332C42.9336 75.7425 43.1362 76.5002 43.5412 77.0064C43.9463 77.5126 44.5571 77.7673 45.3672 77.7673C46.0792 77.7673 46.6425 77.5126 47.0539 77.0064C47.4684 76.5002 47.6741 75.7456 47.6741 74.7427C47.6741 73.7397 47.4716 73.0197 47.0634 72.4977C46.6552 71.9758 46.0665 71.718 45.2912 71.718C44.5159 71.718 43.9463 71.9727 43.5412 72.4789C43.1362 72.9882 42.9336 73.7365 42.9336 74.7332M41.8672 74.7018C41.8672 73.7334 42.1931 72.9536 42.845 72.3657C43.4969 71.7777 44.3134 71.4853 45.2881 71.4853C46.2628 71.4853 47.095 71.7746 47.7564 72.3563C48.4178 72.9379 48.7469 73.7302 48.7469 74.7332C48.7469 75.7362 48.4305 76.4939 47.7976 77.0945C47.1646 77.6982 46.3324 77.9968 45.3007 77.9968C44.2691 77.9968 43.4748 77.695 42.8292 77.0945C42.1868 76.4939 41.864 75.6953 41.864 74.6986" fill="#0D122E" class="switch_white"></path><path d="M56.6868 76.0349L56.6393 77.8837H51.269V77.6699H51.4558C51.7247 77.6699 51.9146 77.6353 52.0159 77.5692C52.1203 77.5001 52.1868 77.3963 52.2184 77.2517C52.2469 77.1071 52.2627 76.7738 52.2627 76.2487V73.1674C52.2627 72.6675 52.2469 72.3437 52.2184 72.199C52.1899 72.0544 52.1266 71.9538 52.0317 71.8972C51.9368 71.8406 51.7279 71.8123 51.4083 71.8123H51.269V71.5985H54.3039V71.8123H54.0254C53.7152 71.8123 53.5095 71.8375 53.4146 71.8878C53.3197 71.9381 53.2532 72.0355 53.2216 72.1739C53.1899 72.3122 53.1741 72.6424 53.1741 73.1643V76.4531C53.1741 76.9058 53.1868 77.1919 53.2121 77.3051C53.2374 77.4183 53.3039 77.5095 53.4146 77.5724C53.5254 77.6353 53.7627 77.6667 54.1266 77.6667H54.6077C54.9969 77.6667 55.2849 77.6321 55.4716 77.5661C55.6614 77.4969 55.8387 77.3492 56.0096 77.1196C56.1773 76.8901 56.3323 76.5285 56.4747 76.0318H56.6931L56.6868 76.0349Z" fill="#0D122E" class="switch_white"></path><path d="M14.8102 42.6975C14.7786 42.5372 14.7881 42.4711 14.864 42.4303C14.8957 42.4145 14.921 42.4083 14.9495 42.402C14.9843 42.3925 15.0001 42.3831 14.9969 42.3642C14.9906 42.3391 14.9621 42.3454 14.9242 42.3517C14.7818 42.3831 14.6742 42.4145 14.6425 42.4208C14.5824 42.4334 14.44 42.4554 14.2881 42.4869C14.2438 42.4963 14.2121 42.5057 14.2185 42.5277C14.2216 42.5435 14.2343 42.5497 14.2691 42.5435C14.3102 42.534 14.3799 42.5214 14.4273 42.5277C14.5033 42.5403 14.5412 42.5906 14.5824 42.7635L14.8925 44.0526H14.8767C14.8166 44.0212 14.3355 43.6879 14.095 43.537C13.5824 43.21 13.0381 42.8327 12.9969 42.8044C12.9368 42.7635 12.902 42.7321 12.8704 42.7384C12.8419 42.7447 12.8419 42.7856 12.8545 42.8421L13.1995 44.5526C13.2501 44.8041 13.2564 44.889 13.1868 44.9299C13.1488 44.9487 13.0982 44.9645 13.0602 44.9739C13.0318 44.9802 13.0159 44.9896 13.0191 45.0053C13.0254 45.0305 13.0507 45.0273 13.0887 45.021C13.2374 44.9896 13.3735 44.9519 13.3988 44.9456C13.4558 44.933 13.5729 44.9173 13.7596 44.8796C13.8007 44.8701 13.8261 44.8576 13.8197 44.8355C13.8166 44.8198 13.7976 44.8167 13.7659 44.823C13.7185 44.8324 13.6647 44.8418 13.6109 44.8355C13.5476 44.8293 13.4938 44.7601 13.44 44.5368L13.1457 43.3326H13.1552C13.2185 43.3767 13.6172 43.6659 14.0001 43.9112C14.3672 44.1438 14.8197 44.4394 15.0381 44.5746C15.0761 44.5997 15.1204 44.6249 15.152 44.6154C15.1773 44.6092 15.1837 44.5809 15.171 44.518L14.8102 42.6944V42.6975Z" fill="#0D122E" class="switch_white"></path><path d="M17.0064 44.3545C16.4368 44.3639 16.0887 43.8797 16.0824 43.2635C16.0729 42.5309 16.4621 42.3359 16.8007 42.3328C17.2881 42.3265 17.6742 42.7321 17.6837 43.3955C17.6931 44.2476 17.2153 44.3513 17.0064 44.3545ZM16.8862 42.1913C15.9938 42.2007 15.6678 42.8579 15.6742 43.3641C15.6805 43.8892 16.0318 44.5148 16.8862 44.5054C17.6394 44.496 18.1077 43.9583 18.1014 43.2823C18.095 42.6063 17.6267 42.185 16.8894 42.1945" fill="#0D122E" class="switch_white"></path><path d="M21.2468 42.8516C21.1044 42.817 20.9937 42.7981 20.962 42.7919C20.9019 42.7761 20.7658 42.7321 20.6139 42.6944C20.5696 42.6818 20.538 42.6755 20.5316 42.6975C20.5285 42.7164 20.538 42.7258 20.5696 42.7353C20.6108 42.7447 20.6804 42.7636 20.7184 42.7919C20.7816 42.839 20.7911 42.8988 20.75 43.0748L20.4494 44.3671H20.4335C20.3956 44.3042 20.1139 43.7948 19.9684 43.5527C19.6551 43.0308 19.3354 42.4523 19.3101 42.4083C19.2753 42.3454 19.2595 42.3014 19.2247 42.2951C19.1962 42.2856 19.1772 42.3234 19.1614 42.3831L18.7025 44.0684C18.6361 44.3168 18.6044 44.3985 18.5222 44.4017C18.4778 44.4017 18.4272 44.3922 18.3892 44.3828C18.3608 44.3765 18.3418 44.3765 18.3354 44.3922C18.3291 44.4205 18.3544 44.43 18.3924 44.4394C18.5443 44.4771 18.6804 44.5023 18.7057 44.5086C18.7627 44.5211 18.8734 44.5589 19.0601 44.606C19.1013 44.6155 19.1266 44.6155 19.1329 44.5934C19.1361 44.5746 19.1203 44.5652 19.0886 44.5589C19.0411 44.5463 18.9873 44.5306 18.943 44.4991C18.8892 44.4645 18.8734 44.3828 18.924 44.1564L19.1994 42.9459H19.2089C19.2468 43.0151 19.4747 43.4553 19.7089 43.842C19.9335 44.213 20.2057 44.6815 20.3418 44.8984C20.3639 44.9362 20.3892 44.977 20.424 44.9865C20.4494 44.9928 20.4684 44.9707 20.4842 44.9079L20.9778 43.1126C21.0222 42.9522 21.0601 42.8956 21.1456 42.8925C21.1835 42.8925 21.2057 42.8988 21.2342 42.905C21.269 42.9145 21.288 42.9082 21.2911 42.8925C21.2975 42.8705 21.269 42.861 21.231 42.8516" fill="#0D122E" class="switch_white"></path><path d="M29.7185 47.0742C29.7248 47.0522 29.6963 47.0427 29.6615 47.0301C29.5223 46.9893 29.4115 46.9673 29.3799 46.9547C29.3197 46.939 29.1868 46.8887 29.0381 46.8478C28.9938 46.8352 28.9621 46.8321 28.9558 46.8541C28.9495 46.8698 28.959 46.8824 28.9938 46.8918C29.0349 46.9044 29.1014 46.9232 29.1394 46.9515C29.1995 46.9987 29.209 47.0616 29.1615 47.2345L28.8197 48.5142H28.8039C28.7691 48.4513 28.5033 47.9325 28.364 47.6841C28.0666 47.1528 27.7691 46.568 27.7438 46.5208C27.7121 46.4548 27.6963 46.4108 27.6647 46.4013C27.6362 46.395 27.614 46.4328 27.5982 46.4862L27.0856 48.1558C27.0096 48.4041 26.9748 48.4796 26.8957 48.4827C26.8514 48.4827 26.8008 48.4702 26.7628 48.4607C26.7343 48.4513 26.7153 48.4513 26.709 48.4702C26.7027 48.4953 26.728 48.5048 26.7628 48.5142C26.9115 48.5582 27.0476 48.5896 27.0729 48.5959C27.1267 48.6117 27.2375 48.6525 27.4242 48.706C27.4653 48.7154 27.4906 48.7186 27.5001 48.6965C27.5033 48.6808 27.4875 48.6682 27.459 48.6588C27.4147 48.6462 27.3609 48.6274 27.3166 48.5959C27.2659 48.5582 27.2501 48.4733 27.3071 48.2532L27.6204 47.0522H27.6299C27.6647 47.1245 27.8799 47.5678 28.1014 47.964C28.3134 48.3413 28.5697 48.8192 28.6995 49.0393C28.7216 49.0801 28.747 49.121 28.7786 49.1304C28.8039 49.1367 28.8229 49.1147 28.8419 49.055L29.3925 47.2754C29.4432 47.115 29.4811 47.0616 29.5697 47.0647C29.6077 47.0647 29.6299 47.071 29.6583 47.0805C29.6932 47.0899 29.7121 47.0867 29.7185 47.0679" fill="#0D122E" class="switch_white"></path><path d="M31.6045 48.379C31.5317 49.2279 31.0443 49.2877 30.8355 49.2688C30.2659 49.2216 29.9684 48.706 30.019 48.0929C30.0823 47.3603 30.4874 47.2062 30.8291 47.2345C31.3165 47.2785 31.6614 47.7187 31.6045 48.3759M30.9272 47.0993C30.038 47.0239 29.6488 47.6464 29.6045 48.1495C29.5602 48.6714 29.8481 49.3317 30.6994 49.404C31.4526 49.47 31.9716 48.9764 32.0285 48.3035C32.0855 47.6275 31.6646 47.1622 30.9272 47.0993Z" fill="#0D122E" class="switch_white"></path><path d="M33.3165 49.2373C33.2468 49.2405 33.1804 49.2436 33.0949 49.2185C32.9968 49.187 32.9842 49.1399 32.9684 48.9418L32.9114 48.2438C32.9114 48.2438 32.9146 48.2249 32.9272 48.2218C32.9715 48.2186 33 48.2155 33.0538 48.2155C33.1709 48.2124 33.2405 48.2281 33.3038 48.2658C33.5411 48.4041 33.6234 48.6462 33.6393 48.8286C33.6614 49.1367 33.443 49.2216 33.3101 49.2342M32.8355 47.3351C32.8355 47.3037 32.8355 47.2911 32.8576 47.2848C32.8861 47.2754 32.9114 47.2754 32.9525 47.2723C33.2089 47.2534 33.3449 47.5018 33.3576 47.6967C33.3703 47.8413 33.3323 47.9514 33.2627 48.0174C33.2152 48.0646 33.1519 48.0834 33.0538 48.0929C32.9874 48.096 32.943 48.0992 32.9146 48.0929C32.9019 48.0929 32.8924 48.0866 32.8924 48.0646L32.8355 47.3383V47.3351ZM33.4019 48.074C33.5538 47.9325 33.6836 47.7785 33.6614 47.5364C33.6487 47.3823 33.5317 47.1025 32.9968 47.1465C32.8956 47.1528 32.7817 47.1685 32.6361 47.1811C32.5791 47.1842 32.3924 47.1905 32.2342 47.2062C32.1899 47.2094 32.1709 47.2188 32.1709 47.2377C32.1709 47.2597 32.1899 47.2628 32.2215 47.2597C32.2627 47.2565 32.3165 47.2565 32.3386 47.2597C32.4367 47.2723 32.4652 47.3163 32.4779 47.4169C32.4905 47.5112 32.4968 47.5898 32.5348 48.0394L32.576 48.5582C32.5981 48.8286 32.6171 49.0644 32.6108 49.187C32.6044 49.2719 32.5981 49.338 32.538 49.3537C32.5127 49.36 32.4779 49.3694 32.4336 49.3725C32.3987 49.3725 32.3893 49.3851 32.3893 49.3977C32.3893 49.4197 32.4114 49.426 32.4494 49.4228C32.5095 49.4197 32.5855 49.4071 32.6519 49.4008C32.7247 49.3914 32.788 49.3883 32.8228 49.3851C32.8671 49.382 32.9557 49.3788 33.0443 49.3788C33.1298 49.3725 33.2184 49.3725 33.2532 49.3694C33.7975 49.3285 34.019 48.9795 33.9905 48.6683C33.962 48.3224 33.6519 48.14 33.4019 48.074" fill="#0D122E" class="switch_white"></path><path d="M35.231 49.0047C35.1424 49.011 35.1107 48.9607 35.0854 48.8852C35.0506 48.7657 35.0031 48.533 34.9462 48.2532L34.8417 47.747C34.7531 47.3068 34.7373 47.2282 34.7215 47.1308C34.7057 47.0301 34.7215 46.9767 34.7943 46.9453C34.8291 46.9327 34.8512 46.9232 34.8797 46.9201C34.9082 46.9138 34.924 46.9044 34.9209 46.8824C34.9145 46.8667 34.8924 46.8635 34.8544 46.8698C34.7436 46.8918 34.5759 46.9327 34.5031 46.9484C34.4177 46.9641 34.2342 46.9924 34.1234 47.0144C34.0759 47.0239 34.0538 47.0364 34.0569 47.0522C34.0601 47.0773 34.0791 47.0773 34.1107 47.071C34.1455 47.0647 34.1835 47.0584 34.2183 47.0616C34.2848 47.0647 34.3228 47.1056 34.3481 47.2031C34.3734 47.2974 34.3892 47.376 34.4778 47.8162L34.5823 48.3224C34.6392 48.6022 34.6867 48.8317 34.6962 48.9544C34.7057 49.0424 34.6962 49.0959 34.6424 49.1179C34.6171 49.1273 34.5823 49.1399 34.5411 49.1493C34.5063 49.1556 34.4968 49.1682 34.5 49.1807C34.5031 49.1996 34.5253 49.2059 34.5633 49.1965C34.6804 49.1745 34.8607 49.1304 34.9272 49.1147C35.0063 49.099 35.193 49.0707 35.3829 49.033C35.4145 49.0267 35.4367 49.011 35.4335 48.9889C35.4304 48.9764 35.4145 48.9701 35.3829 48.9764C35.3386 48.9858 35.2753 48.9921 35.231 48.9952" fill="#0D122E" class="switch_white"></path><path d="M36.2531 47.3854L36.155 47.354C35.8607 47.2534 35.7658 47.1748 35.7215 47.0459C35.6677 46.8792 35.7531 46.7157 35.9651 46.6497C36.1487 46.59 36.2563 46.6497 36.3164 46.6843C36.3987 46.7377 36.443 46.8226 36.4525 46.8478C36.462 46.8792 36.4746 46.8949 36.4968 46.8887C36.5189 46.8824 36.5221 46.8572 36.4968 46.7943C36.424 46.5742 36.4113 46.4893 36.3987 46.4548C36.3924 46.4359 36.3734 46.4296 36.348 46.4327C36.2689 46.4359 36.1424 46.4453 35.9588 46.5082C35.5664 46.634 35.3765 46.9421 35.481 47.2534C35.5537 47.4797 35.7278 47.6401 36.117 47.7847L36.2816 47.8413C36.5759 47.9451 36.6613 48.0614 36.7056 48.1998C36.7563 48.3475 36.6867 48.5582 36.4335 48.6431C36.2563 48.6997 36.0664 48.6777 35.9367 48.4922C35.905 48.4481 35.8734 48.3947 35.8607 48.357C35.8544 48.335 35.8417 48.3098 35.8164 48.3192C35.7943 48.3255 35.7943 48.3601 35.8069 48.4041C35.8196 48.4513 35.8639 48.6242 35.9145 48.7783C35.9367 48.838 35.9493 48.8506 35.9999 48.8569C36.136 48.8695 36.2721 48.8506 36.4367 48.794C36.5886 48.7468 36.7373 48.6682 36.848 48.533C37.0063 48.3381 37.0063 48.1212 36.9525 47.9608C36.867 47.6936 36.6803 47.5395 36.2531 47.3949" fill="#0D122E" class="switch_white"></path><path d="M44.674 42.7132C44.6297 42.556 44.6329 42.49 44.7088 42.4428C44.7405 42.424 44.7626 42.4177 44.7911 42.4083C44.8259 42.3988 44.8417 42.3831 44.8354 42.3674C44.8291 42.3454 44.8006 42.3517 44.7626 42.3642C44.6234 42.4083 44.519 42.4491 44.4873 42.4586C44.4272 42.4743 44.2879 42.5089 44.1392 42.5529C44.0949 42.5623 44.0664 42.5749 44.0728 42.5969C44.0759 42.6158 44.0917 42.6189 44.1266 42.6095C44.1677 42.5969 44.2341 42.578 44.2816 42.5812C44.3576 42.5906 44.3987 42.6346 44.4557 42.8076L44.8607 44.0684H44.8449C44.7848 44.0401 44.2785 43.7477 44.0285 43.6125C43.4905 43.3232 42.9209 42.9899 42.8766 42.9648C42.8133 42.927 42.7785 42.8987 42.7436 42.9082C42.7152 42.9176 42.7183 42.9585 42.7373 43.0151L43.212 44.694C43.2816 44.9424 43.2943 45.0273 43.2278 45.0713C43.1898 45.0934 43.1392 45.1122 43.1044 45.1217C43.0759 45.1279 43.0601 45.1405 43.0664 45.1562C43.0728 45.1814 43.1012 45.1782 43.1392 45.1657C43.2848 45.1217 43.4177 45.0745 43.443 45.0682C43.4968 45.0525 43.6139 45.0273 43.7974 44.9739C43.8354 44.9613 43.8607 44.9519 43.8544 44.9267C43.8512 44.911 43.8291 44.911 43.7974 44.9173C43.7531 44.9299 43.6993 44.9456 43.6455 44.9393C43.5822 44.9393 43.5253 44.8733 43.4525 44.6563L43.0664 43.4773H43.0759C43.1424 43.515 43.5633 43.776 43.9652 43.9898C44.3481 44.1941 44.8228 44.4582 45.0538 44.5746C45.0949 44.5966 45.136 44.6154 45.1677 44.6092C45.193 44.6029 45.1962 44.5746 45.1772 44.5117L44.6772 42.7195L44.674 42.7132Z" fill="#0D122E" class="switch_white"></path><path d="M46.9556 43.5999L46.4081 43.5936C46.4081 43.5936 46.3923 43.5873 46.3955 43.5747L46.6771 42.8516C46.6771 42.8516 46.6866 42.8233 46.6929 42.8233C46.7024 42.8233 46.7056 42.839 46.7087 42.8516L46.9682 43.5842C46.9682 43.5842 46.9682 43.603 46.9524 43.603M47.8258 44.4645C47.7625 44.4488 47.6771 44.4048 47.5663 44.1407C47.3796 43.6911 46.9144 42.4837 46.8448 42.3202C46.8163 42.2542 46.7974 42.2259 46.7689 42.2259C46.7404 42.2259 46.7214 42.2573 46.6866 42.3454L45.9239 44.191C45.8606 44.3356 45.8037 44.4394 45.6708 44.4551C45.6455 44.4582 45.6043 44.4614 45.579 44.4614C45.5568 44.4614 45.5442 44.4677 45.5442 44.4834C45.5442 44.5054 45.5632 44.5117 45.6012 44.5117C45.7562 44.5117 45.9176 44.5054 45.9524 44.5054C46.0442 44.5054 46.1739 44.518 46.2657 44.518C46.2974 44.518 46.3132 44.5148 46.3163 44.4897C46.3163 44.474 46.3068 44.4645 46.272 44.4645H46.2277C46.136 44.4645 46.1075 44.4268 46.1075 44.3702C46.1075 44.3325 46.1233 44.2633 46.155 44.1878L46.3195 43.7665C46.3258 43.7508 46.3322 43.7445 46.348 43.7445L47.0094 43.7508C47.0094 43.7508 47.0347 43.7571 47.041 43.7697L47.272 44.4016C47.2879 44.4362 47.2657 44.4645 47.2436 44.4677C47.2151 44.4708 47.2024 44.4771 47.2024 44.4928C47.2024 44.5148 47.2372 44.5148 47.291 44.518C47.5284 44.5274 47.7467 44.5306 47.8512 44.5306C47.9619 44.5306 47.9872 44.5274 47.9872 44.5023C47.9872 44.4834 47.9746 44.4802 47.9493 44.4802C47.9144 44.4802 47.8701 44.4771 47.8258 44.4677" fill="#0D122E" class="switch_white"></path><path d="M50.0474 42.5718C50.0031 42.5718 49.9366 42.5718 49.8417 42.5623L48.6772 42.4145C48.5822 42.402 48.4683 42.3831 48.3829 42.3642C48.3101 42.3485 48.2847 42.3171 48.2594 42.3139C48.2436 42.3108 48.231 42.3297 48.2183 42.3642C48.2088 42.3863 48.1202 42.6472 48.1139 42.6912C48.1107 42.7227 48.1139 42.7384 48.1329 42.7415C48.1518 42.7415 48.1613 42.7321 48.1708 42.7101C48.1803 42.6881 48.1993 42.6535 48.2341 42.6126C48.2879 42.5529 48.3607 42.5497 48.5316 42.5623L48.9715 42.6063L48.8196 43.8043C48.7879 44.0747 48.7563 44.3073 48.7246 44.4268C48.7056 44.5117 48.6772 44.5714 48.6202 44.5777C48.5917 44.5809 48.5569 44.5809 48.5126 44.5777C48.4778 44.5746 48.4651 44.5809 48.462 44.5966C48.462 44.6186 48.481 44.628 48.5189 44.6312C48.636 44.6469 48.8227 44.6626 48.8892 44.6689C48.9746 44.6783 49.1582 44.7098 49.3512 44.7349C49.386 44.7381 49.4113 44.7349 49.4145 44.7129C49.4145 44.6972 49.4018 44.6878 49.3702 44.6846C49.3259 44.6783 49.2594 44.6658 49.2215 44.6532C49.136 44.6312 49.1234 44.5651 49.1265 44.4803C49.1265 44.3513 49.1582 44.1218 49.193 43.8514L49.3449 42.6535L49.7151 42.7101C49.9746 42.7478 50.0442 42.839 50.0411 42.9176V42.9491C50.0379 42.9931 50.0411 43.0088 50.0632 43.0119C50.0791 43.0119 50.0885 42.9962 50.0949 42.9679C50.1044 42.8893 50.1392 42.6912 50.1487 42.6284C50.155 42.5843 50.1518 42.5686 50.1328 42.5655C50.1202 42.5655 50.098 42.5655 50.0506 42.5686" fill="#0D122E" class="switch_white"></path><path d="M51.5696 42.9805C51.462 42.9491 51.2911 42.905 51.2215 42.8862C51.1392 42.861 50.962 42.7981 50.8544 42.7667C50.8069 42.7541 50.7848 42.7541 50.7784 42.7698C50.7721 42.7919 50.7879 42.8044 50.8164 42.8107C50.8481 42.8202 50.886 42.8327 50.9145 42.8516C50.9715 42.8862 50.9873 42.9428 50.962 43.0402C50.9398 43.1314 50.9177 43.21 50.7879 43.6408L50.636 44.1375C50.5537 44.4111 50.4841 44.6343 50.4367 44.7475C50.4018 44.8261 50.3734 44.8701 50.3132 44.867C50.2879 44.867 50.25 44.8607 50.2088 44.8481C50.174 44.8387 50.1613 44.8418 50.155 44.8576C50.1487 44.8764 50.1677 44.8921 50.2025 44.9016C50.3164 44.9362 50.4968 44.9802 50.5632 44.999C50.6392 45.0211 50.8164 45.0839 51.0031 45.1374C51.0348 45.1468 51.0601 45.1468 51.0664 45.128C51.0696 45.1122 51.0601 45.0997 51.0284 45.0902C50.9841 45.0776 50.924 45.0525 50.886 45.0336C50.8037 44.999 50.8006 44.9424 50.8132 44.8607C50.8386 44.7349 50.905 44.5117 50.9873 44.2382L51.136 43.7414C51.2658 43.3106 51.2911 43.232 51.3227 43.144C51.3575 43.0497 51.3955 43.0057 51.4778 43.0151C51.5126 43.0182 51.5379 43.0245 51.5664 43.034C51.5949 43.0434 51.6139 43.0434 51.6202 43.0182C51.6265 42.9994 51.6044 42.9899 51.5664 42.9774" fill="#0D122E" class="switch_white"></path><path d="M31.6518 8.76275C31.6613 8.86966 31.6739 8.98284 31.6961 9.0866C31.6961 9.09289 31.6961 9.09918 31.6961 9.10547C31.7024 9.1432 31.7119 9.18093 31.7214 9.21866C31.7214 9.22494 31.7246 9.23438 31.7277 9.24381C31.7372 9.27525 31.7499 9.30355 31.7594 9.33499C31.7657 9.35385 31.7752 9.37586 31.7847 9.39473C31.791 9.41045 31.8037 9.41988 31.81 9.4356C31.8227 9.45447 31.8322 9.47648 31.848 9.4922C31.8543 9.49848 31.8607 9.49848 31.867 9.50477C31.8765 9.51106 31.886 9.51735 31.8955 9.52364C31.9334 9.54565 31.9714 9.55822 31.9999 9.55822C32.0284 9.55822 32.0663 9.54565 32.1043 9.52364C32.1138 9.51735 32.1233 9.51421 32.1328 9.50477C32.1391 9.50163 32.1455 9.49848 32.1486 9.4922C32.1613 9.47962 32.1739 9.45447 32.1866 9.4356C32.1961 9.42303 32.2056 9.41045 32.2119 9.39473C32.2214 9.37586 32.2277 9.35385 32.2372 9.33499C32.2499 9.30355 32.2594 9.27525 32.2689 9.24381C32.2689 9.23752 32.272 9.22809 32.2752 9.21866C32.2847 9.18093 32.2942 9.1432 32.3037 9.10547C32.3037 9.09918 32.3037 9.09289 32.3037 9.0866C32.3227 8.9797 32.3385 8.86966 32.348 8.76275C32.348 8.74703 32.3512 8.73131 32.3512 8.71559C32.367 8.52694 32.367 8.36345 32.3701 8.30056C32.3701 8.12449 32.3638 7.94213 32.348 7.7692C32.31 7.37933 32.2182 7.04919 32.0062 7.04919C32.0062 7.04919 31.9999 7.04919 31.9967 7.04919H31.9936C31.7784 7.04919 31.6866 7.37933 31.6518 7.7692C31.636 7.94213 31.6296 8.12764 31.6296 8.30056C31.6296 8.36345 31.6296 8.52694 31.6486 8.71559C31.6486 8.73131 31.6486 8.74703 31.6518 8.76275" fill="#0D122E" class="switch_white"></path><path d="M32 10.492H32.0158C32.5221 10.4857 32.7025 10.1776 32.7594 9.80029C32.7784 9.67453 32.7848 9.53933 32.7848 9.40727V8.88849L32.7689 8.91364L32.5379 9.26264L32.4968 9.32238C32.3101 9.60535 32.2025 9.75627 32.0094 9.75627C31.8196 9.75627 31.7088 9.60535 31.5221 9.32238L31.481 9.26264L31.25 8.91364L31.2341 8.88849V9.40727C31.2341 9.53933 31.2405 9.67453 31.2594 9.80029C31.3164 10.1776 31.4968 10.4857 32.0031 10.492" fill="#0D122E" class="switch_white"></path><path d="M54.6645 47.5332C54.3227 47.1654 53.6771 46.6529 52.4651 46.1215C50.6202 45.3135 49.3544 44.9236 47.1392 44.911H46.7278C45.0221 44.8859 43.2594 44.8639 42.3765 46.8415L42.2594 47.1119C42.0031 47.7093 41.8733 47.9797 41.4778 48.1306C41.348 48.1809 41.0917 48.1746 40.8544 48.1432C41.0442 48.0112 41.2278 47.8822 41.4714 47.703C41.4746 47.703 41.4809 47.6967 41.4841 47.6936C41.5252 47.6622 41.5506 47.6181 41.5695 47.5741C41.5727 47.5647 41.5854 47.5584 41.5885 47.549C41.6075 47.4924 41.6139 47.4295 41.598 47.3666L40.6044 43.6188C40.6044 43.6188 40.6044 43.6156 40.6044 43.6125C40.5949 43.5779 40.5759 43.4899 40.6866 43.3515C41.348 42.4995 44.6645 41.77 46.9145 41.77C48.924 41.77 50.1297 41.9367 51.6835 42.4366C52.443 42.6787 54.7563 43.4144 54.7563 44.4488V46.8981C54.7594 47.1497 54.7214 47.3635 54.6708 47.5364M53.2531 48.5614C52.9018 48.5614 52.617 48.4513 52.3132 48.3319C51.9746 48.1998 51.6265 48.0646 51.174 48.0646C50.7847 48.0646 50.4746 48.1464 50.1993 48.2784C50.5063 47.6401 50.9335 47.3792 51.3639 47.2C51.4271 47.1748 51.4873 47.1528 51.5442 47.1339C51.7531 47.0616 52.0094 46.9673 52.155 46.7095C52.3164 46.9201 52.4145 47.1056 52.4145 47.3603C52.4145 47.6559 52.2942 47.8131 52.2183 47.9483C52.4651 47.7345 53.1392 47.3194 53.3037 47.4515C53.4683 47.5835 53.0885 47.8445 52.9809 47.9797C53.1961 47.8665 53.3512 47.8036 53.579 47.8036C53.867 47.8036 54.1518 47.8885 54.329 48.1369C54.0695 48.4073 53.7025 48.5614 53.2531 48.5614M32.0189 50.1995H31.9999C28.7278 50.1995 25.6835 49.2279 23.1677 47.3918C23.136 47.3697 23.1075 47.3477 23.0759 47.3257L23.0917 47.2691L23.5506 45.5367C23.579 45.433 23.6012 45.3418 23.6265 45.2443C23.7278 44.8607 23.8259 44.4897 23.9113 44.1784C26.4683 45.6059 29.2721 46.3448 32.0094 46.307C34.7436 46.351 37.5474 45.6059 40.1044 44.1784C40.3227 44.9959 40.6487 46.2284 40.848 46.9704L40.943 47.3257C40.9082 47.3509 40.8765 47.3729 40.8417 47.398C38.3259 49.2279 35.2847 50.1995 32.0221 50.1995M22.5347 48.1338C22.1392 47.9797 22.0094 47.7093 21.7531 47.1151L21.636 46.8447C20.7531 44.8702 18.9904 44.889 17.2847 44.911H16.8733C14.6582 44.9267 13.3923 45.3166 11.5474 46.1247C10.3385 46.656 9.6898 47.1717 9.34803 47.5364C9.2974 47.3666 9.25626 47.1497 9.25626 46.8981V44.4488C9.25942 43.4144 11.5727 42.6787 12.3322 42.4366C13.8892 41.9398 15.0917 41.77 17.1012 41.77C19.3544 41.77 22.6708 42.4995 23.329 43.3515C23.443 43.4962 23.4177 43.5873 23.4113 43.6188C23.4018 43.6534 23.3892 43.6942 23.3797 43.732C23.2499 44.2193 23.1265 44.6846 22.9873 45.2129C22.8733 45.6468 22.7563 46.0838 22.6582 46.4548L22.4177 47.3666C22.4018 47.4295 22.405 47.4924 22.424 47.549C22.4303 47.5678 22.4493 47.5804 22.4588 47.5993C22.4778 47.6339 22.4968 47.6684 22.5284 47.6936H22.5316C22.7784 47.8791 22.962 48.0112 23.155 48.1432C22.9177 48.1746 22.6613 48.1809 22.5316 48.1306M12.4714 47.1276C12.5284 47.1465 12.5885 47.1685 12.6518 47.1937C13.0822 47.3697 13.5094 47.6339 13.8164 48.2721C13.5379 48.1401 13.2309 48.0583 12.8417 48.0583C12.3892 48.0583 12.0411 48.1935 11.7025 48.3256C11.3987 48.445 11.1139 48.5551 10.7626 48.5551C10.3101 48.5551 9.94613 48.4042 9.68664 48.1306C9.86385 47.8822 10.1487 47.7974 10.4366 47.7974C10.6645 47.7974 10.8196 47.8571 11.0347 47.9734C10.9271 47.8351 10.5474 47.5773 10.712 47.4452C10.8765 47.3131 11.5506 47.7282 11.7974 47.942C11.7214 47.8068 11.598 47.6496 11.6012 47.354C11.6012 47.1025 11.6993 46.9138 11.8607 46.7032C12.0063 46.961 12.2658 47.0553 12.4714 47.1276ZM28.3195 42.9302C28.443 42.9459 28.5126 43.0214 28.5126 43.0937C28.5126 43.1723 28.4714 43.2132 28.3892 43.2195C28.3259 43.2195 28.2689 43.2635 28.2468 43.3201C28.2246 43.3798 28.2404 43.449 28.2879 43.4899C28.4177 43.6062 28.5885 43.6534 28.7468 43.6314C28.8385 43.6439 28.9335 43.6376 29.0158 43.5999C29.136 43.5465 29.3417 43.3861 29.3417 42.9302C29.3417 41.5028 28.6898 40.7419 27.3196 39.6697C26.3196 38.8868 25.3385 38.148 24.5126 37.5411C25.5063 38.0725 26.6202 38.6919 27.4556 39.239C28.7626 40.0942 29.9746 41.1475 29.9746 43.0434C29.9746 43.6659 29.5379 44.1187 28.9335 44.1438C28.4335 44.1187 27.9335 43.908 27.9335 43.4741C27.9335 43.0403 28.1297 42.9522 28.3164 42.9302M20.6771 32.9413C20.6771 32.9224 20.6771 32.8815 20.6771 32.8375L28.0347 25.5336L20.6771 18.2266C20.6771 15.1297 20.6771 12.7778 20.6771 12.7778C20.6771 11.9195 20.4398 11.3913 20.1423 10.9951C20.6233 11.0423 21.0601 11.0674 21.4493 11.0737L32.0158 21.5689L42.5822 11.0737C42.9746 11.0674 43.4082 11.0423 43.8923 10.9951C43.5917 11.3944 43.3575 11.9226 43.3575 12.7778C43.3575 12.7778 43.3575 15.1297 43.3575 18.2266L35.9999 25.5336L43.3575 32.8375C43.3575 32.8815 43.3575 32.9224 43.3575 32.9413C43.3512 34.9567 41.2404 36.0665 39.3828 36.8117L32.0158 29.4953L24.6518 36.8117C22.7974 36.0697 20.6835 34.9567 20.6771 32.9413M19.848 35.5226C18.9556 34.6077 18.848 33.4097 18.8354 33.0513C19.4556 32.6992 19.8417 32.1867 19.8417 32.1867C19.8417 32.1867 19.3575 32.303 18.8354 32.2212V29.9732C19.1961 29.8411 19.5696 29.6525 19.8797 29.3318C19.8797 31.3283 19.8797 32.7463 19.8797 32.9444C19.886 34.6045 21.0506 35.7238 22.4177 36.5161C22.4746 36.557 22.5537 36.6105 22.6233 36.6639C21.4303 36.5727 20.4999 36.1892 19.848 35.5226M14.6803 31.7465C15.1044 34.18 17.8892 35.378 17.8892 35.378C15.5094 34.4379 13.7847 32.9192 13.7847 30.9133C13.7847 27.5207 15.8544 26.7316 16.9208 26.7316C17.9873 26.7316 17.9303 27.5868 17.0252 27.5868C15.5727 27.5868 14.7721 29.3381 14.6423 30.231C14.5347 30.9699 14.6771 31.7433 14.6771 31.7433M17.6455 39.1164C13.8733 38.7862 11.3607 36.186 10.9271 32.1615C10.6961 30.0266 11.3385 27.8918 12.6392 26.4486C13.6898 25.2884 15.0664 24.6753 16.6233 24.6753C16.9556 24.6753 17.6107 24.7099 18.2499 24.9268C18.348 24.9583 18.443 24.996 18.5379 25.04H18.5442C18.6392 25.084 18.7341 25.1312 18.8259 25.1846C19.4651 25.5494 19.9809 26.1688 19.9809 27.2283C19.9809 28.6055 19.4714 29.074 18.8259 29.3475C18.6423 29.4261 18.4493 29.489 18.2499 29.5519C17.5885 29.7657 16.8385 30.0078 16.7214 30.9542C16.6677 31.3912 16.7911 31.7874 17.0822 32.0986C17.3512 32.3879 18.2721 32.5765 18.6771 32.6866C18.6771 32.6866 18.3069 32.8438 17.4651 32.8438C16.6233 32.8438 15.5727 31.9194 15.5696 30.8755C15.5664 29.8128 16.0316 29.0394 16.8512 28.5237C17.6708 28.0081 18.7214 27.9704 18.7214 27.0554C18.7214 26.3448 18.098 25.8952 16.9651 25.8952C15.2752 25.8952 13.8544 27.0806 13.2404 28.5112C11.6518 32.4728 14.7341 34.5919 16.4999 35.1422C17.4904 35.4503 18.0601 35.837 18.0189 36.1766C18.0189 36.2017 17.9999 36.2678 17.9018 36.3338C17.7974 36.4061 17.4746 36.5602 16.7341 36.3935L16.2183 36.2772C15.5094 36.1168 14.9461 35.9879 14.3132 35.8181L13.4082 35.5729L14.0189 36.2803C15.6233 38.1417 18.7183 38.8963 21.4113 38.2234C20.1044 39.1447 18.5569 39.1918 17.6423 39.1132M13.5126 22.5876C13.4177 21.638 13.2942 20.9495 13.1866 20.4716C13.8765 20.9212 14.6613 21.2293 15.5252 21.3676C15.8575 21.4211 16.1898 21.4463 16.5158 21.4463C16.6518 21.4463 16.7879 21.44 16.9208 21.4305C16.9398 21.5249 16.9556 21.6255 16.9556 21.7292C16.9588 22.7008 16.3923 23.2573 16.2531 24.1251C15.2816 24.1817 14.3765 24.4521 13.5727 24.9363C13.6107 24.4489 13.6233 23.6786 13.5126 22.5876M19.8733 20.1729C19.8733 21.8487 19.8733 23.6126 19.8733 25.301C19.5885 24.9803 19.2309 24.7319 18.829 24.5464V20.9369C19.1107 20.7986 19.3765 20.6445 19.6012 20.4558C19.7056 20.3678 19.7879 20.2703 19.8733 20.1729M10.8892 16.0132C10.0252 12.498 11.1044 7.49882 14.7626 4.38926C14.6835 4.83887 14.6328 5.21302 14.5854 5.55888C14.4018 6.91086 14.2974 7.65288 12.7974 10.3883L12.405 11.102L13.1582 10.7939C13.7689 10.5424 14.462 10.0833 15.2151 9.42932C15.5442 10.7813 14.8702 11.6082 14.098 12.5546C13.0664 13.8217 11.8955 15.2586 13.7246 18.06C14.7151 19.5723 16.3544 19.7013 17.1613 19.2108C17.7563 18.8492 17.8955 18.1858 17.5126 17.5255C17.1265 16.8621 16.636 16.5728 16.1993 16.3182C15.7721 16.0666 15.4018 15.8497 15.1645 15.2932C15.0221 14.9599 15.0221 14.592 15.1645 14.2556C15.3195 13.8846 15.6297 13.589 16.0316 13.4255C16.3733 13.2872 16.6866 13.262 16.9873 13.2998C16.3259 13.5104 15.9335 13.7903 15.7942 14.1424C15.712 14.3499 15.6803 14.6863 15.9999 15.0982C16.4303 15.6516 17.1455 15.922 17.8417 16.1861C18.9904 16.6231 19.9366 16.9973 19.9398 18.4467C19.9398 19.0567 19.7246 19.6038 19.2246 20.0251C19.1044 20.1257 18.9714 20.2169 18.829 20.3018C18.6518 20.4087 18.4556 20.4967 18.2499 20.5753C17.4873 20.8646 16.5569 20.9558 15.6202 20.8048C13.2689 20.4275 11.5442 18.6825 10.8892 16.0163M15.1771 6.33863C15.2721 5.53687 15.3733 5.24446 15.4556 4.81057C16.329 7.55856 19.0569 9.22495 19.0569 9.22495C18.0158 9.12434 17.4778 8.70617 17.4714 8.70303L16.8196 8.17481L17.0063 8.98914C17.0063 8.98914 17.1328 9.55823 16.9525 10.0299C16.8259 10.36 16.4208 10.7782 16.2784 10.9134L15.8354 11.3221L16.4366 11.407C16.4556 11.407 18.2531 11.6805 18.2531 12.9948C18.2531 12.9948 17.3702 12.6049 16.2879 12.803C15.2025 13.0011 14.6898 13.4538 14.6898 13.4538C14.9271 12.4634 16.1012 10.8473 15.6044 9.24067C15.2309 8.03647 15.0885 7.14038 15.1803 6.33863M23.3955 0.575405C26.924 0.575405 29.693 2.26067 29.693 4.90175C29.693 4.93634 29.6898 4.96778 29.6866 5.00236C29.6803 5.28534 29.6518 5.55259 29.598 5.80412C29.5537 6.01478 29.4904 6.20972 29.4177 6.39837C29.1961 6.87313 28.8923 7.27873 28.5664 7.63087C28.5474 7.64974 28.5316 7.6686 28.5126 7.68747C28.4082 7.79751 28.3006 7.90441 28.1898 8.00502C27.9145 8.21254 27.617 8.38232 27.3006 8.51752C27.0822 8.6087 26.8575 8.68416 26.6265 8.74076C26.3955 8.79735 26.1645 8.83822 25.9335 8.85709C25.8037 8.86967 25.674 8.87595 25.5442 8.87595C25.3575 8.87595 25.1771 8.86023 24.9999 8.83822C24.8702 8.8225 24.7436 8.79735 24.6202 8.76905H24.617C24.4999 8.74076 24.386 8.70931 24.2721 8.67158C24.2626 8.67158 24.2563 8.6653 24.2499 8.6653C24.1455 8.63071 24.0442 8.58984 23.9461 8.54896C23.9335 8.54267 23.9208 8.53953 23.9082 8.53324C23.8006 8.48608 23.6993 8.43263 23.598 8.37603C22.6993 7.86039 22.1423 7.01776 22.1423 6.16884C22.1423 4.81057 23.3132 3.87362 24.3892 3.87362C24.4556 3.87362 24.5189 3.88305 24.5822 3.88934C24.9493 3.91763 25.2879 4.01825 25.5696 4.16917C25.5759 4.17231 25.5822 4.17545 25.5885 4.18174C25.674 4.2289 25.7531 4.27921 25.8259 4.33266C25.8417 4.34524 25.8575 4.35781 25.8733 4.37353C25.9335 4.4207 25.9904 4.471 26.0411 4.52445C26.0664 4.54961 26.0854 4.5779 26.1075 4.6062C26.1423 4.65022 26.1803 4.69424 26.2088 4.7414C26.2341 4.78542 26.2531 4.83258 26.2721 4.8766C26.2879 4.91118 26.3069 4.94263 26.3164 4.97721C26.3417 5.05896 26.3544 5.14385 26.3544 5.22874C26.3544 5.92989 26.0316 6.15312 25.5063 6.15312C24.9809 6.15312 24.5252 5.48656 24.8733 5.01809C24.7974 5.01809 24.7309 5.02437 24.6677 5.03695C24.193 5.13127 24.0284 5.55259 24.1487 5.96447C24.1487 5.97076 24.1487 5.97391 24.1518 5.97705C24.1771 6.05565 24.212 6.13426 24.2563 6.20972C24.2594 6.21601 24.2658 6.22544 24.2689 6.23487C24.3164 6.31033 24.3733 6.3795 24.443 6.44553C24.4556 6.4581 24.4714 6.47068 24.4873 6.48326C24.5537 6.53985 24.6265 6.5933 24.7056 6.64047C24.7183 6.64675 24.7278 6.65304 24.7373 6.65933C24.829 6.70649 24.9303 6.74422 25.0411 6.77252C25.0664 6.77881 25.0949 6.7851 25.1233 6.79138C25.2404 6.81654 25.3639 6.8354 25.5031 6.8354C26.4841 6.8354 27.1044 6.20657 27.1044 5.38909C27.1044 2.80146 24.4715 1.9211 22.5506 1.9211C21.2658 1.9211 19.9082 2.34242 19.0474 2.93352C18.2025 3.51833 17.6708 4.33581 17.6708 5.28534C17.6708 5.28848 17.6708 5.29163 17.6708 5.29477C17.6708 5.53058 17.6898 5.75067 17.7183 5.96133C17.7183 5.98648 17.7246 6.01164 17.7278 6.03679C17.7309 6.06194 17.7373 6.08395 17.7404 6.1091C17.7626 6.2443 17.7847 6.37321 17.8132 6.49583C17.8196 6.51784 17.8227 6.54614 17.8259 6.56815C17.8354 6.60902 17.848 6.63732 17.8575 6.67191C17.8892 6.79138 17.924 6.90772 17.9651 7.01462C17.9683 7.02405 17.9714 7.03663 17.9746 7.04292C17.9841 7.07121 17.9936 7.09637 18.0063 7.12466C18.2309 7.7252 18.6866 8.35088 18.6866 8.35088C18.6866 8.35088 18.4651 8.20625 18.4556 8.19996C18.4177 8.17166 18.3069 8.08992 18.2942 8.08048C18.1107 7.939 17.886 7.74092 17.6677 7.48938L17.655 7.47681C17.5822 7.39506 17.5126 7.30702 17.443 7.2127C17.443 7.20956 17.4366 7.20641 17.4366 7.20327C17.2911 7.00519 17.1582 6.7851 17.0474 6.53671C16.8797 6.1657 16.7689 5.73809 16.7689 5.25704C16.7689 1.90538 19.8639 0.572261 23.3923 0.572261M30.1297 4.94577C30.174 4.59677 30.2056 4.22576 30.212 3.82331H31.0727V4.73511C31.079 5.6029 31.0822 6.42352 30.8227 7.30388V7.31017C30.4208 8.53953 30.0221 9.27526 30.0221 9.27526C30.0221 9.27526 29.1265 8.87595 28.6012 8.56468C28.5221 8.51438 28.4461 8.46407 28.3733 8.41376C28.943 7.89498 29.4841 7.30702 29.8733 6.36692C30.0411 5.95819 30.1075 5.42368 30.1297 4.94891M30.4999 1.77018C30.386 1.65699 30.2689 1.6004 30.174 1.55323C30.0316 1.48406 30.0221 1.47149 30.0221 1.40232C30.0221 1.36459 30.0379 1.33314 30.0632 1.30485C30.0664 1.3017 30.0695 1.29541 30.0759 1.29227C30.1012 1.27026 30.1328 1.24825 30.1708 1.23568C30.1771 1.23568 30.1866 1.22939 30.193 1.22939C30.2278 1.21681 30.2658 1.20738 30.3037 1.20109C30.3132 1.20109 30.3227 1.20109 30.3322 1.19795C30.3702 1.1948 30.4082 1.19166 30.4398 1.19166C30.7531 1.19166 30.9809 1.35201 31.117 1.49035L31.386 1.7576V1.38031C31.386 1.01244 31.6993 0.792351 32.0031 0.792351C32.3069 0.792351 32.6202 1.01244 32.6202 1.38031V1.7576L32.886 1.49035C33.0221 1.35515 33.2499 1.19166 33.5632 1.19166C33.5949 1.19166 33.6328 1.1948 33.6708 1.19795C33.6803 1.19795 33.6898 1.19795 33.6993 1.20109C33.7373 1.20738 33.7752 1.21681 33.8101 1.22939C33.8164 1.22939 33.8259 1.23253 33.8322 1.23568C33.8702 1.2514 33.9018 1.27026 33.9271 1.29227C33.9303 1.29541 33.9335 1.3017 33.9398 1.30485C33.962 1.33 33.9809 1.36144 33.9809 1.40232C33.9809 1.47149 33.9714 1.48406 33.829 1.55323C33.7341 1.6004 33.617 1.65699 33.5063 1.77018C33.193 2.08145 33.1044 2.54993 33.0347 2.92408C32.9651 3.29195 32.9145 3.51518 32.7784 3.51518H32.7404C32.7436 2.98697 32.7816 2.5122 33.098 2.01542C32.4651 2.20407 32.4651 3.24793 32.2942 3.29509C32.2911 3.29509 32.2879 3.30452 32.2816 3.30452C32.2784 3.30452 32.2784 3.29824 32.2752 3.29824C32.2594 3.29824 32.2531 3.27937 32.2404 3.2668C32.2278 3.25422 32.212 3.25107 32.2056 3.23221C32.155 3.12216 32.1582 2.88635 32.1582 2.63168C32.1582 2.28268 32.1233 1.99656 32.0063 1.99656C31.886 1.99656 31.8512 2.28268 31.8512 2.63168C31.8512 2.88635 31.8544 3.12216 31.8037 3.23221C31.7942 3.25107 31.7784 3.25422 31.7689 3.2668C31.7563 3.27623 31.7499 3.29509 31.7341 3.29824C31.7309 3.29824 31.7309 3.30452 31.7309 3.30452C31.7246 3.30452 31.7214 3.29824 31.7151 3.29509C31.5442 3.24793 31.5442 2.20407 30.9113 2.01542C31.2246 2.5122 31.2658 2.98697 31.2689 3.51518H31.2309C31.0949 3.51518 31.0442 3.29195 30.9746 2.92408C30.905 2.54679 30.8164 2.08145 30.5031 1.77018M33.8006 3.82645C33.8069 4.23205 33.8354 4.59991 33.8828 4.94891C33.905 5.42054 33.9714 5.95504 34.1392 6.36692C34.5284 7.30702 35.0664 7.89498 35.6392 8.41376C35.5664 8.46407 35.4904 8.51438 35.4113 8.56468C34.886 8.87595 33.9904 9.27526 33.9904 9.27526C33.9904 9.27526 33.5917 8.53953 33.193 7.31017V7.30388C32.9335 6.42352 32.9366 5.6029 32.9398 4.73511V3.82331H33.8069L33.8006 3.82645ZM40.6202 0.575405C44.1487 0.575405 47.2436 1.90852 47.2436 5.26018C47.2436 5.74124 47.1328 6.1657 46.9651 6.53985C46.8544 6.7851 46.7214 7.00833 46.5759 7.20641C46.5759 7.20956 46.5696 7.2127 46.5696 7.21584C46.4999 7.31017 46.4303 7.3982 46.3575 7.47995C46.3544 7.4831 46.3512 7.48938 46.3449 7.49253C46.1233 7.74406 45.8987 7.94214 45.7183 8.08363C45.7056 8.09306 45.5949 8.17795 45.5569 8.20311C45.5442 8.21254 45.3259 8.35403 45.3259 8.35403C45.3259 8.35403 45.7816 7.72834 46.0063 7.12781C46.0158 7.10265 46.0252 7.07436 46.0379 7.04606C46.0411 7.03663 46.0442 7.02405 46.0474 7.01776C46.0854 6.90772 46.1202 6.79453 46.155 6.67505C46.1645 6.64047 46.1771 6.60902 46.1866 6.57444C46.193 6.54928 46.1961 6.52099 46.1993 6.49898C46.2278 6.37636 46.2531 6.2443 46.2721 6.11225C46.2752 6.0871 46.2816 6.06509 46.2847 6.03993C46.2879 6.01478 46.2911 5.98963 46.2942 5.96447C46.3227 5.75382 46.3417 5.53373 46.3417 5.29791C46.3417 5.29477 46.3417 5.29163 46.3417 5.28848C46.3417 4.33895 45.8101 3.52147 44.9651 2.9398C44.1075 2.34556 42.7468 1.92424 41.462 1.92424C39.5442 1.92424 36.9082 2.80461 36.9082 5.39224C36.9082 6.20972 37.5252 6.83855 38.5094 6.83855C38.6455 6.83855 38.7721 6.81968 38.8892 6.79453C38.9177 6.78824 38.943 6.78195 38.9714 6.77566C39.0822 6.74737 39.1835 6.70964 39.2752 6.66247C39.2879 6.65619 39.2974 6.6499 39.3069 6.64361C39.3892 6.59645 39.462 6.54614 39.5252 6.4864C39.5411 6.47383 39.5569 6.46125 39.5695 6.44867C39.6392 6.38265 39.6961 6.31347 39.7436 6.23801C39.7499 6.22858 39.7531 6.22229 39.7563 6.21286C39.8006 6.1374 39.8385 6.0588 39.8607 5.98019C39.8607 5.97705 39.8639 5.97076 39.8639 5.96762C39.9841 5.55573 39.8195 5.13442 39.3449 5.04009C39.2816 5.02752 39.212 5.02123 39.1392 5.02123C39.4873 5.48971 39.0316 6.15627 38.5063 6.15627C37.9809 6.15627 37.6582 5.93303 37.6582 5.23189C37.6582 5.147 37.674 5.0621 37.6961 4.98036C37.7056 4.94577 37.7246 4.91433 37.7404 4.87974C37.7594 4.83258 37.7752 4.78856 37.8037 4.74454C37.8322 4.69738 37.867 4.65336 37.905 4.60935C37.9271 4.58105 37.9461 4.55275 37.9714 4.5276C38.0221 4.47415 38.079 4.42384 38.1392 4.37668C38.155 4.3641 38.1708 4.35153 38.1866 4.33581C38.2594 4.28235 38.3385 4.23205 38.424 4.18489C38.4303 4.18174 38.4366 4.17545 38.443 4.17231C38.7246 4.02139 39.0632 3.92078 39.4303 3.89248C39.4968 3.88934 39.5569 3.87676 39.6233 3.87676C40.7025 3.87676 41.8702 4.81372 41.8702 6.17199C41.8702 7.02091 41.3132 7.86354 40.4145 8.37918C40.3164 8.43577 40.212 8.48922 40.1044 8.53639C40.0917 8.54267 40.079 8.54582 40.0664 8.55211C39.9683 8.59612 39.867 8.63385 39.7626 8.66844C39.7563 8.66844 39.7468 8.67473 39.7404 8.67473C39.6297 8.71246 39.5158 8.7439 39.3955 8.7722C39.2721 8.80049 39.1455 8.8225 39.0158 8.84137C38.8385 8.86338 38.6582 8.8791 38.4714 8.8791C38.3417 8.8791 38.212 8.87281 38.0822 8.86023C37.8512 8.83822 37.6202 8.80049 37.3892 8.7439H37.3828C37.155 8.6873 36.9303 8.61185 36.7088 8.51752C36.3955 8.38547 36.0949 8.21254 35.8195 8.00502C35.712 7.90441 35.6044 7.79751 35.4999 7.68747C35.4809 7.6686 35.4651 7.64974 35.4461 7.62773C35.1202 7.27558 34.8164 6.86999 34.5949 6.39522C34.5221 6.20657 34.4588 6.01164 34.4145 5.80098C34.3607 5.54945 34.3322 5.28219 34.3259 4.99922C34.3259 4.96463 34.3195 4.93319 34.3195 4.89861C34.3195 2.25752 37.0854 0.572261 40.617 0.572261M48.5601 4.80743C48.6423 5.24132 48.7436 5.53373 48.8385 6.33548C48.9335 7.13724 48.7911 8.03332 48.4177 9.23753C47.9208 10.8442 49.0917 12.4571 49.3322 13.4507C49.3322 13.4507 48.8195 12.9948 47.7341 12.7998C46.6487 12.6018 45.7689 12.9916 45.7689 12.9916C45.7689 11.6805 47.5664 11.407 47.5854 11.4038L48.1835 11.319L47.7404 10.9102C47.5949 10.7782 47.193 10.36 47.0632 10.0267C46.8828 9.55509 47.0063 8.99229 47.0094 8.986L47.1961 8.17166L46.5442 8.69988C46.5442 8.69988 45.9999 9.1212 44.9588 9.22181C44.9588 9.22181 47.6866 7.55541 48.5601 4.80743M51.2214 10.3851C49.7214 7.64974 49.6202 6.90772 49.4335 5.55573C49.386 5.21302 49.3354 4.83572 49.2563 4.38611C52.9145 7.49567 53.9936 12.4949 53.1297 16.01C52.4746 18.6763 50.7499 20.4213 48.3987 20.7986C47.4588 20.9495 46.5316 20.8583 45.7658 20.569C45.5601 20.4904 45.3639 20.4024 45.1866 20.2955C45.0442 20.2106 44.9113 20.1194 44.7911 20.0188C44.4398 19.7201 44.2341 19.3617 44.1423 18.9624C44.1297 18.9026 44.1202 18.8429 44.1107 18.7832C44.0949 18.67 44.079 18.5599 44.079 18.4404C44.079 18.2958 44.0949 18.1701 44.1139 18.0474C44.1233 17.9908 44.1297 17.9311 44.1423 17.8776C44.367 16.8872 45.193 16.5508 46.1771 16.1798C46.8702 15.9157 47.5885 15.6453 48.0189 15.0919C48.3385 14.68 48.3069 14.3468 48.2246 14.1361C48.0854 13.784 47.6898 13.5041 47.0316 13.2935C47.3322 13.2589 47.6455 13.2809 47.9873 13.4192C48.3923 13.5827 48.6993 13.8751 48.8544 14.2493C48.9936 14.5857 48.9936 14.9567 48.8544 15.2869C48.617 15.8434 48.2468 16.0603 47.8195 16.3119C47.386 16.5665 46.8923 16.8558 46.5063 17.5192C46.1233 18.1795 46.2594 18.8398 46.8544 19.2045C47.6582 19.695 49.3006 19.5661 50.2911 18.0537C52.1233 15.2523 50.9525 13.8154 49.9177 12.5483C49.1455 11.6019 48.4714 10.775 48.8006 9.42304C49.5537 10.0802 50.2436 10.5361 50.8544 10.7876L51.6107 11.0957L51.2183 10.382L51.2214 10.3851ZM50.4461 24.9363C49.6423 24.4489 48.7373 24.1817 47.7658 24.1251C47.6265 23.2573 47.0569 22.7039 47.0632 21.7292C47.0632 21.6255 47.079 21.5249 47.098 21.4305C47.2309 21.44 47.367 21.4463 47.5031 21.4463C47.829 21.4463 48.1613 21.4211 48.4936 21.3676C49.3575 21.2293 50.1392 20.9212 50.8322 20.4716C50.7246 20.9495 50.6012 21.638 50.5094 22.5876C50.3987 23.6786 50.4145 24.4489 50.4493 24.9363M44.1487 20.1729C44.2373 20.2703 44.3195 20.3678 44.4208 20.4558C44.6455 20.6445 44.9113 20.7986 45.193 20.9369V24.5464C44.7911 24.7319 44.4335 24.9803 44.1487 25.301C44.1487 23.6126 44.1487 21.8487 44.1487 20.1729M41.1993 8.5301C41.943 7.95472 42.4525 7.14038 42.4525 6.1657C42.3607 3.48374 40.0695 3.11902 39.0695 3.34225C40.7879 2.77945 43.2309 3.01526 44.4714 4.72254C45.6455 6.33863 44.8132 8.28485 44.3987 9.23439C43.6392 9.21867 43.0063 9.03631 42.2784 8.8225C41.943 8.72189 41.5854 8.62128 41.1993 8.5301M19.5474 4.72568C20.7879 3.01841 23.2309 2.7826 24.9493 3.3454C23.9493 3.12531 21.6613 3.49003 21.5696 6.16884C21.5696 7.14353 22.0759 7.95786 22.8227 8.53324C22.4366 8.62442 22.079 8.72818 21.7436 8.82565C21.0189 9.03945 20.3828 9.22181 19.6233 9.23753C19.2088 8.288 18.3765 6.34177 19.5506 4.72568M19.0347 10.8976C19.8132 11.1555 19.8733 11.7371 19.8733 12.7778C19.8733 12.7778 19.8733 14.3751 19.8733 16.6671C19.4873 16.2804 18.9904 16.0289 18.4999 15.8245C18.4398 15.7868 18.3195 15.727 18.1107 15.6453C16.3322 14.9473 17.2721 13.7777 18.7468 13.5293C18.867 13.5104 18.9493 13.4916 19.0158 13.4758C19.1803 13.4507 19.2721 13.435 19.2721 13.435L18.8259 13.2149V12.9916C18.8259 11.8189 17.829 11.2058 17.0252 10.9542C17.1993 10.7499 17.3923 10.4889 17.4904 10.2311C17.5949 9.96068 17.6265 9.68086 17.6265 9.44504C18.0284 9.62426 18.6582 9.8192 19.5126 9.8192C20.367 9.8192 21.136 9.6054 21.905 9.37587C22.4113 9.22495 22.9335 9.07404 23.5316 8.97028C24.155 9.2784 24.8575 9.44819 25.5442 9.44819C26.136 9.44819 26.7309 9.32557 27.2974 9.11176C27.6645 9.22495 28.0854 9.33186 29.117 9.33186C29.117 9.33186 29.3385 9.33186 29.348 9.33186C29.5601 9.4419 29.7847 9.5488 30.0189 9.6557C30.0284 9.65885 30.0347 9.66199 30.0411 9.66828L30.1771 9.73116L30.2214 9.64627L30.2468 9.60225C30.5664 9.00172 30.8259 8.42005 31.1265 7.39192C31.3987 6.47068 31.3955 5.58403 31.3923 4.73197V4.72568C31.3923 4.72568 31.5759 4.5276 32.0063 4.52445C32.4366 4.52445 32.6202 4.72568 32.6202 4.72568V4.73197C32.6202 5.58718 32.6139 6.47068 32.886 7.39192C33.1898 8.42005 33.4461 9.00172 33.7658 9.60225L33.7911 9.64627L33.8354 9.73116L33.9683 9.66828C33.9683 9.66828 33.9841 9.66199 33.9904 9.6557C34.2246 9.5488 34.4461 9.43876 34.6613 9.33186C34.6708 9.32871 34.8923 9.33186 34.8923 9.33186C35.924 9.33186 36.3449 9.22495 36.712 9.11176C37.2752 9.32557 37.8733 9.44819 38.4651 9.44819C39.1518 9.44819 39.8575 9.27526 40.4809 8.97028C41.079 9.07404 41.6012 9.22495 42.1075 9.37587C42.8765 9.60225 43.6044 9.8192 44.4999 9.8192C45.3955 9.8192 45.9873 9.62426 46.386 9.44504C46.386 9.684 46.4176 9.96383 46.5221 10.2311C46.6202 10.4858 46.8132 10.7499 46.9873 10.9542C46.1835 11.2058 45.1866 11.8189 45.1866 12.9916V13.2149L44.7404 13.435C44.7404 13.435 44.962 13.4696 45.3322 13.5293C46.8069 13.7745 47.7468 14.9473 45.9683 15.6453C45.3449 15.8811 44.6455 16.1578 44.1423 16.6671C44.1423 14.3751 44.1423 12.7778 44.1423 12.7778C44.1423 11.7371 44.1866 11.1712 44.9809 10.8976L45.7752 10.6272L45.6044 10.1085L44.6613 10.2499C43.7373 10.3883 42.9936 10.4449 42.3512 10.448C41.3069 10.4417 40.5474 10.3003 39.7626 10.1525C38.9082 9.98898 38.0221 9.82234 36.7309 9.82234C36.7183 9.82234 36.7056 9.82234 36.693 9.82234C36.6487 9.82234 36.6044 9.82234 36.5569 9.82234C34.329 9.82234 32.7689 10.8725 31.9968 11.5453C31.2246 10.8725 29.6677 9.82234 27.4366 9.82234C27.3892 9.82234 27.348 9.82234 27.3006 9.82234C27.2879 9.82234 27.2752 9.82234 27.2658 9.82234C25.9746 9.82234 25.0917 9.99213 24.2341 10.1525C23.4493 10.3003 22.6898 10.4449 21.6455 10.448C21.0031 10.4417 20.2594 10.3851 19.3354 10.2499L18.3923 10.1085L18.2214 10.6272C18.2214 10.6272 18.2404 10.6398 19.0158 10.8976M49.3639 30.231C49.2341 29.3381 48.4335 27.5868 46.9809 27.5868C46.0759 27.5868 46.0189 26.7316 47.0854 26.7316C48.1518 26.7316 50.2214 27.5207 50.2214 30.9133C50.2214 32.9161 48.4968 34.4379 46.1202 35.378C46.1202 35.378 48.905 34.18 49.329 31.7465C49.329 31.7465 49.4714 30.973 49.3639 30.2341M51.3639 26.4549C52.6676 27.8949 53.3069 30.0298 53.0759 32.1678C52.6423 36.1923 50.1297 38.7894 46.3575 39.1226C45.443 39.2013 43.8955 39.1541 42.5885 38.2329C45.2816 38.9057 48.3797 38.1511 49.9809 36.2898L50.5917 35.5823L49.6866 35.8276C49.0537 35.9974 48.4936 36.1231 47.7816 36.2866L47.2658 36.403C46.5252 36.5727 46.2025 36.4187 46.098 36.3432C46.0031 36.2772 45.9841 36.2112 45.9809 36.186C45.9398 35.8464 46.5094 35.4597 47.4999 35.1516C49.2658 34.6014 52.348 32.4822 50.7594 28.5206C50.1455 27.09 48.7246 25.9047 47.0347 25.9047C45.9018 25.9047 45.2784 26.3543 45.2784 27.0648C45.2784 27.9798 46.329 28.0175 47.1487 28.5332C47.9683 29.0488 48.4366 29.8223 48.4303 30.885C48.4271 31.9288 47.3765 32.8532 46.5347 32.8532C45.693 32.8532 45.3227 32.696 45.3227 32.696C45.7278 32.5891 46.6487 32.3973 46.9176 32.1081C47.2088 31.7968 47.3322 31.4006 47.2784 30.9636C47.1582 30.0172 46.4113 29.7751 45.7499 29.5613H45.7468C45.5506 29.4984 45.3544 29.4355 45.1708 29.3569C44.7025 29.1588 44.3101 28.8539 44.1265 28.1779C44.0917 28.0553 44.0664 27.9201 44.0474 27.7723C44.0474 27.7628 44.0442 27.7566 44.0442 27.7471C44.0252 27.5931 44.0158 27.4233 44.0158 27.2346C44.0158 27.09 44.0252 26.9548 44.0442 26.829C44.0442 26.8227 44.0442 26.8165 44.0474 26.8102C44.0664 26.6875 44.0917 26.5712 44.1265 26.4643C44.3101 25.8606 44.7056 25.4582 45.1708 25.1941C45.2626 25.1406 45.3575 25.0935 45.4525 25.0526H45.4588C45.5537 25.0086 45.6518 24.9708 45.7468 24.9394C46.3892 24.7225 47.0411 24.6879 47.3733 24.6879C48.9303 24.6879 50.3069 25.301 51.3575 26.4612M41.3765 36.6671C41.4493 36.6136 41.5252 36.5602 41.5822 36.5193C42.9493 35.7238 44.1139 34.6077 44.1202 32.9475C44.1202 32.7495 44.1202 31.3315 44.1202 29.3349C44.4303 29.6556 44.8037 29.8443 45.1645 29.9763V32.2244C44.6423 32.3061 44.1582 32.1898 44.1582 32.1898C44.1582 32.1898 44.5411 32.7054 45.1645 33.0544C45.1518 33.4129 45.0442 34.6139 44.1518 35.5257C43.4999 36.1923 42.5664 36.5759 41.3765 36.6671M33.4303 44.7821C33.7436 44.8041 34.0506 45.0336 34.0506 45.2852C34.0506 45.3984 34.0063 45.499 33.9303 45.5776C33.5221 45.6279 33.117 45.6562 32.7088 45.6719C32.6613 45.6468 32.6328 45.6059 32.6328 45.5304C32.6328 45.1217 32.9461 44.823 33.4303 44.7853M31.329 45.5304C31.329 45.6059 31.3006 45.6468 31.2531 45.6719C30.8449 45.6562 30.4398 45.6279 30.0316 45.5776C29.9556 45.5021 29.9113 45.3984 29.9113 45.2852C29.9113 45.0336 30.2183 44.8041 30.5316 44.7821C31.0189 44.8198 31.329 45.1185 31.329 45.5273M31.1107 43.1094C31.0695 43.0874 31.0189 43.0874 30.9778 43.1094C30.9746 43.1094 30.9746 43.1157 30.9683 43.1189C30.9651 43.1189 30.962 43.1126 30.9588 43.1126C30.9177 43.0906 30.867 43.0906 30.8259 43.1126C30.7847 43.1314 30.7499 43.1692 30.7404 43.2132C30.7151 43.3044 30.6835 43.383 30.6518 43.449C30.6139 43.5245 30.5759 43.581 30.5379 43.6282C30.5474 43.2698 30.6107 43.0214 30.6771 42.7856C30.7436 42.5466 30.8037 42.3202 30.8037 42.009C30.8037 41.5091 30.674 41.1192 30.5158 40.7828C30.7594 41.0311 30.9303 41.3298 31.0411 41.7008C31.098 41.8958 31.1677 42.0687 31.2499 42.2354C31.3702 42.4743 31.5316 42.707 31.7974 42.9711C31.8259 42.9994 31.8639 43.0151 31.905 43.0151H31.9082C31.9335 43.0151 31.9588 42.9994 31.9809 42.9837C32.0063 42.9962 32.0284 43.012 32.0537 43.0151H32.0569C32.0949 43.0151 32.1328 42.9994 32.1613 42.9711C32.4271 42.707 32.5885 42.4743 32.7088 42.2354C32.7911 42.0687 32.8607 41.8958 32.9176 41.7008C33.0316 41.3298 33.1993 41.0311 33.443 40.7828C33.2879 41.1192 33.1582 41.5059 33.155 42.009C33.155 42.3202 33.2151 42.5466 33.2816 42.7856C33.3449 43.0214 33.4082 43.2698 33.4208 43.6282C33.3828 43.581 33.3449 43.5245 33.3069 43.449C33.2721 43.383 33.2436 43.3044 33.2183 43.2132C33.2056 43.1692 33.174 43.1314 33.1328 43.1126C33.0885 43.0937 33.0411 43.0937 32.9999 43.1126C32.9968 43.1126 32.9936 43.1189 32.9904 43.1189C32.9873 43.1189 32.9873 43.1126 32.9841 43.1094C32.9398 43.0906 32.8923 43.0906 32.8512 43.1094C32.5221 43.2729 32.462 43.6597 32.4018 44.0369C32.3259 44.518 32.2499 44.7444 31.9809 44.7853C31.7151 44.7444 31.636 44.5211 31.5601 44.0369C31.4999 43.6597 31.4398 43.2729 31.1107 43.1094M36.6771 39.676C35.3069 40.7482 34.655 41.5091 34.655 42.9365C34.655 43.3924 34.8575 43.5528 34.9809 43.6062C35.0632 43.6439 35.1582 43.6502 35.2499 43.6376C35.405 43.6596 35.5759 43.6125 35.7088 43.4962C35.7563 43.4553 35.7721 43.3861 35.7499 43.3264C35.7278 43.2666 35.6708 43.2258 35.6075 43.2258C35.5252 43.2226 35.4841 43.1786 35.4841 43.1C35.4841 43.0277 35.5537 42.9554 35.6771 42.9365C35.8639 42.9585 36.0601 43.0654 36.0601 43.4804C36.0601 43.8955 35.5601 44.125 35.0601 44.1501C34.4556 44.125 34.0189 43.6722 34.0189 43.0497C34.0189 41.1538 35.2309 40.1005 36.5379 39.2453C37.3733 38.7013 38.4873 38.0788 39.4809 37.5474C38.655 38.1542 37.674 38.8931 36.674 39.676M55.348 44.4551C55.348 43.1377 53.4746 42.3706 51.8417 41.8486C50.2151 41.3298 48.962 41.1538 46.8797 41.1538C44.6613 41.1538 41.0316 41.8486 40.155 42.9805C39.9999 43.1817 39.9493 43.3704 39.943 43.5307C39.7309 43.6534 39.5158 43.7697 39.2974 43.8829C39.079 43.9332 38.8132 43.9709 38.4999 43.9772C37.9177 43.9678 37.2214 43.8514 36.5031 43.6817C36.5189 43.6188 36.5284 43.5496 36.5284 43.4804C36.5284 42.9334 36.2373 42.6189 35.7278 42.6189C35.6993 42.6189 35.6803 42.6284 35.655 42.6315C35.6265 42.6315 35.6075 42.6189 35.579 42.6189C35.367 42.6189 35.2183 42.7101 35.1265 42.8296C35.1613 41.5971 35.7436 40.9211 37.0221 39.9213C38.4176 38.8271 39.7942 37.8115 40.7214 37.1418L40.6993 37.2676L41.0284 37.5034L41.1898 37.7078C42.5284 39.3899 44.4208 39.7326 45.7404 39.7326C45.9809 39.7326 46.2025 39.72 46.4018 39.7043C50.4714 39.349 53.1803 36.557 53.6455 32.2401C53.8923 29.9449 53.1993 27.6434 51.7879 26.0839C51.5601 25.8292 51.3132 25.6091 51.0569 25.4016C51.0158 25.1595 50.8987 24.276 51.0569 22.6599C51.2278 20.9526 51.4873 20.1226 51.5664 19.8993C52.5569 18.9938 53.2847 17.7267 53.6676 16.1672C54.6233 12.2811 53.3196 6.67191 48.9778 3.46802L48.1803 2.8895C48.1803 3.6378 48.0316 4.61563 47.7942 5.18158C47.7436 1.94625 45.0632 0.0157471 40.598 0.0157471C37.2404 0.0157471 34.7341 1.4086 33.9746 3.52776H33.3164C33.3828 3.3737 33.424 3.18505 33.4588 2.99325C33.5252 2.64111 33.4683 2.29525 33.712 2.05315C33.7879 1.97769 33.8733 1.93682 33.9525 1.89595C34.098 1.82363 34.3417 1.68529 34.3417 1.41489C34.3417 1.10048 33.9873 0.88982 33.5506 0.88982C33.2721 0.88982 33.0474 0.984144 32.8733 1.09733C32.7436 0.710604 32.3607 0.490513 31.9873 0.490513C31.6139 0.490513 31.2309 0.713748 31.1012 1.09733C30.9271 0.984144 30.7025 0.88982 30.424 0.88982C29.9873 0.88982 29.6202 1.10048 29.6202 1.41489C29.6202 1.68529 29.8765 1.82363 30.0221 1.89595C30.1044 1.93682 30.1866 1.97769 30.2626 2.05315C30.5063 2.29525 30.4651 2.64111 30.5316 2.99325C30.5664 3.1819 30.6044 3.3737 30.674 3.52776H29.9968C29.2373 1.4086 26.7309 0.0157471 23.3733 0.0157471C18.9082 0.0157471 16.2278 1.94625 16.1771 5.18158C15.9398 4.61563 15.7942 3.6378 15.7911 2.8895L14.9936 3.46802C10.6518 6.67191 9.34803 12.2842 10.3037 16.1672C10.6866 17.7267 11.4145 18.9938 12.405 19.8993C12.4841 20.1257 12.7436 20.9558 12.9145 22.6599C13.0759 24.276 12.9588 25.1563 12.9145 25.4016C12.6582 25.606 12.4113 25.8292 12.1835 26.0839C10.7721 27.6434 10.079 29.9449 10.3259 32.2401C10.7911 36.557 13.4999 39.349 17.5696 39.7043C17.7658 39.72 17.9873 39.7326 18.2309 39.7326C19.5506 39.7326 21.443 39.3899 22.7816 37.7078L22.943 37.5034L23.2721 37.2676L23.2499 37.1418C24.1771 37.8147 25.5537 38.8271 26.9493 39.9213C28.2246 40.9211 28.8101 41.5971 28.8449 42.8296C28.7531 42.7101 28.6075 42.6189 28.3923 42.6189C28.3639 42.6189 28.3417 42.6315 28.3164 42.6315C28.2911 42.6315 28.2721 42.6189 28.2436 42.6189C27.7373 42.6189 27.4461 42.9334 27.4461 43.4804C27.4461 43.5496 27.4556 43.6156 27.4714 43.6817C26.7531 43.8514 26.0569 43.9678 25.4746 43.9772C25.1423 43.9709 24.8702 43.93 24.6423 43.8735C24.4303 43.7634 24.2214 43.6502 24.0126 43.5276C24.0063 43.3672 23.9556 43.1786 23.8006 42.9774C22.924 41.8455 19.2942 41.1506 17.0759 41.1506C14.9936 41.1506 13.7404 41.3267 12.1139 41.8455C10.4809 42.3674 8.60753 43.1314 8.60753 44.452V46.9013C8.60436 47.2754 8.67398 47.6087 8.79107 47.9043C8.83854 48.0269 8.88601 48.1275 8.93347 48.2061C8.9398 48.2187 8.94613 48.2281 8.95563 48.2407C8.97461 48.2721 8.99677 48.313 9.01575 48.335C9.02525 48.3444 9.0379 48.3476 9.0474 48.357C9.42082 48.8726 10.0094 49.1808 10.7404 49.1808C11.212 49.1808 11.5822 49.0361 11.9082 48.9072C12.2025 48.7909 12.4841 48.684 12.8164 48.684C13.3449 48.684 13.6645 48.8695 14.1771 49.2877L14.8733 49.8536L14.6835 48.9795C14.4113 47.7376 13.8702 47.0333 12.867 46.6183C12.7942 46.5869 12.7214 46.5617 12.655 46.5397C12.5158 46.4925 12.4398 46.4642 12.3955 46.4202C13.8639 45.8165 14.9841 45.5399 16.8449 45.5304H17.2626C18.9683 45.5084 20.3164 45.4895 21.0316 47.0899L21.1455 47.354C21.3987 47.9451 21.6202 48.4545 22.2752 48.7092C22.4113 48.7626 22.6075 48.7878 22.8227 48.7878C23.174 48.7878 23.5727 48.7186 23.8385 48.5928C26.2404 50.0486 29.0158 50.8189 31.9714 50.8189H31.9936C34.9493 50.8189 37.7246 50.0486 40.1265 48.5928C40.3923 48.7186 40.7911 48.7878 41.1423 48.7878C41.3575 48.7878 41.5537 48.7626 41.6898 48.7092C42.3449 48.4545 42.5632 47.9451 42.8195 47.354L42.9335 47.0899C43.6487 45.4895 44.9999 45.5084 46.7025 45.5273H47.1202C48.9809 45.543 50.1044 45.8197 51.5696 46.4234C51.5252 46.4642 51.4493 46.4925 51.3101 46.5428C51.2436 46.5648 51.1708 46.59 51.098 46.6214C50.098 47.0333 49.5569 47.7408 49.2847 48.9827L49.0917 49.8568L49.7879 49.2908C50.3006 48.8726 50.6202 48.6871 51.1487 48.6871C51.4809 48.6871 51.7626 48.7972 52.0569 48.9104C52.386 49.0393 52.7563 49.1839 53.2246 49.1839C53.9556 49.1839 54.5442 48.8758 54.9176 48.3602C54.9271 48.3507 54.9398 48.3476 54.9493 48.3381C54.9683 48.3161 54.9873 48.2721 55.0094 48.2438C55.0158 48.2312 55.0252 48.2218 55.0316 48.2092C55.079 48.1275 55.1265 48.03 55.174 47.9074C55.2942 47.6118 55.3607 47.2754 55.3607 46.9044V44.4551H55.348Z" fill="#0D122E" class="switch_white"></path><path d="M43.348 18.2235C43.348 15.1265 43.348 12.7747 43.348 12.7747C43.348 11.9195 43.5854 11.3881 43.8828 10.9919C43.4018 11.0391 42.9651 11.0643 42.5727 11.0705L32.0094 21.5657L21.4429 11.0705C21.0505 11.0643 20.617 11.0391 20.136 10.9919C20.4366 11.3913 20.6708 11.9195 20.6708 12.7747C20.6708 12.7747 20.6708 15.1265 20.6708 18.2235L28.0284 25.5305L20.6708 32.8343C20.6708 32.8784 20.6708 32.9192 20.6708 32.9381C20.6771 34.9535 22.7879 36.0634 24.6455 36.8085L32.0094 29.4921L39.3733 36.8085C41.2278 36.0665 43.3385 34.9535 43.348 32.9381C43.348 32.9192 43.348 32.8784 43.348 32.8343L35.9904 25.5305L43.348 18.2235V18.2235Z" fill="#E5BD2F" class="fill_transparent"></path></g></svg>